<?xml version="1.0" encoding="UTF-8" standalone="no"?>
<!DOCTYPE svg PUBLIC "-//W3C//DTD SVG 1.1//EN"
 "http://www.w3.org/Graphics/SVG/1.1/DTD/svg11.dtd">
<!-- Generated by graphviz version 2.38.0 (20140413.2041)
 -->
<!-- Title: G Pages: 1 -->
<svg width="784pt" height="456pt"
 viewBox="21.60 21.60 762.10 434.60" xmlns="http://www.w3.org/2000/svg" xmlns:xlink="http://www.w3.org/1999/xlink">
<g id="graph0" class="graph" transform="scale(1 1) rotate(0) translate(25.6 430.6)">
<title>G</title>
<polygon fill="white" stroke="none" points="-4,4 -4,-409 736.5,-409 736.5,4 -4,4"/>
<g id="clust4" class="cluster"><title>cluster_0</title>
<polygon fill="none" stroke="black" stroke-dasharray="1,5" points="568.5,-8 568.5,-154 708.5,-154 708.5,-8 568.5,-8"/>
<text text-anchor="middle" x="638.5" y="-138.8" font-family="Times,serif" font-size="14.00">service</text>
</g>
<!-- Queue -->
<g id="node1" class="node"><title>Queue</title>
<path fill="none" stroke="blue" d="M564.5,-231C564.5,-231 534.5,-231 534.5,-231 528.5,-231 522.5,-225 522.5,-219 522.5,-219 522.5,-207 522.5,-207 522.5,-201 528.5,-195 534.5,-195 534.5,-195 564.5,-195 564.5,-195 570.5,-195 576.5,-201 576.5,-207 576.5,-207 576.5,-219 576.5,-219 576.5,-225 570.5,-231 564.5,-231"/>
<text text-anchor="middle" x="549.5" y="-209.3" font-family="Times,serif" font-size="14.00">Queue</text>
</g>
<!-- WorkerPoolManager -->
<g id="node2" class="node"><title>WorkerPoolManager</title>
<path fill="none" stroke="blue" d="M292.5,-231C292.5,-231 184.5,-231 184.5,-231 178.5,-231 172.5,-225 172.5,-219 172.5,-219 172.5,-207 172.5,-207 172.5,-201 178.5,-195 184.5,-195 184.5,-195 292.5,-195 292.5,-195 298.5,-195 304.5,-201 304.5,-207 304.5,-207 304.5,-219 304.5,-219 304.5,-225 298.5,-231 292.5,-231"/>
<text text-anchor="middle" x="238.5" y="-209.3" font-family="Times,serif" font-size="14.00">WorkerPoolManager</text>
</g>
<!-- Worker -->
<g id="node4" class="node"><title>Worker</title>
<path fill="none" stroke="blue" d="M539,-131C539,-131 504,-131 504,-131 498,-131 492,-125 492,-119 492,-119 492,-107 492,-107 492,-101 498,-95 504,-95 504,-95 539,-95 539,-95 545,-95 551,-101 551,-107 551,-107 551,-119 551,-119 551,-125 545,-131 539,-131"/>
<text text-anchor="middle" x="521.5" y="-109.3" font-family="Times,serif" font-size="14.00">Worker</text>
</g>
<!-- WorkerPoolManager&#45;&gt;Worker -->
<g id="edge12" class="edge"><title>WorkerPoolManager&#45;&gt;Worker</title>
<path fill="none" stroke="black" d="M304.673,-196.572C307.65,-196.013 310.603,-195.486 313.5,-195 349.659,-188.938 445.964,-195.7 477.5,-177 491.72,-168.568 502.484,-153.537 509.805,-140.271"/>
<polygon fill="black" stroke="black" points="513.087,-141.54 514.527,-131.044 506.856,-138.351 513.087,-141.54"/>
</g>
<!-- WorkerPoolSampler -->
<g id="node5" class="node"><title>WorkerPoolSampler</title>
<path fill="none" stroke="black" d="M423,-131C423,-131 318,-131 318,-131 312,-131 306,-125 306,-119 306,-119 306,-107 306,-107 306,-101 312,-95 318,-95 318,-95 423,-95 423,-95 429,-95 435,-101 435,-107 435,-107 435,-119 435,-119 435,-125 429,-131 423,-131"/>
<text text-anchor="middle" x="370.5" y="-109.3" font-family="Times,serif" font-size="14.00">WorkerPoolSampler</text>
</g>
<!-- WorkerPoolManager&#45;&gt;WorkerPoolSampler -->
<g id="edge17" class="edge"><title>WorkerPoolManager&#45;&gt;WorkerPoolSampler</title>
<path fill="none" stroke="black" d="M304.631,-195.389C329.323,-188.622 352.419,-181.375 356.5,-177 365.366,-167.494 369.071,-153.665 370.473,-141.384"/>
<polygon fill="black" stroke="black" points="373.983,-141.355 371.183,-131.137 367,-140.871 373.983,-141.355"/>
</g>
<!-- CircuitBreaker -->
<g id="node6" class="node"><title>CircuitBreaker</title>
<path fill="none" stroke="black" d="M85,-131C85,-131 12,-131 12,-131 6,-131 0,-125 0,-119 0,-119 0,-107 0,-107 0,-101 6,-95 12,-95 12,-95 85,-95 85,-95 91,-95 97,-101 97,-107 97,-107 97,-119 97,-119 97,-125 91,-131 85,-131"/>
<text text-anchor="middle" x="48.5" y="-109.3" font-family="Times,serif" font-size="14.00">CircuitBreaker</text>
</g>
<!-- WorkerPoolManager&#45;&gt;CircuitBreaker -->
<g id="edge13" class="edge"><title>WorkerPoolManager&#45;&gt;CircuitBreaker</title>
<path fill="none" stroke="black" d="M172.374,-200.931C151.64,-195.659 129.282,-188.009 110.5,-177 93.9448,-167.297 78.7699,-152.041 67.5767,-138.973"/>
<polygon fill="black" stroke="black" points="70.2126,-136.668 61.1452,-131.188 64.816,-141.126 70.2126,-136.668"/>
</g>
<!-- Autothrottler -->
<g id="node7" class="node"><title>Autothrottler</title>
<path fill="none" stroke="black" d="M190,-131C190,-131 127,-131 127,-131 121,-131 115,-125 115,-119 115,-119 115,-107 115,-107 115,-101 121,-95 127,-95 127,-95 190,-95 190,-95 196,-95 202,-101 202,-107 202,-107 202,-119 202,-119 202,-125 196,-131 190,-131"/>
<text text-anchor="middle" x="158.5" y="-109.3" font-family="Times,serif" font-size="14.00">Autothrottler</text>
</g>
<!-- WorkerPoolManager&#45;&gt;Autothrottler -->
<g id="edge14" class="edge"><title>WorkerPoolManager&#45;&gt;Autothrottler</title>
<path fill="none" stroke="black" d="M236.525,-194.579C234.695,-184.365 231.189,-171.622 224.5,-162 217.807,-152.373 208.544,-143.954 199.072,-136.968"/>
<polygon fill="black" stroke="black" points="200.967,-134.022 190.754,-131.203 196.979,-139.776 200.967,-134.022"/>
</g>
<!-- Handler -->
<g id="node11" class="node"><title>Handler</title>
<ellipse fill="none" stroke="black" cx="638.5" cy="-26" rx="38.9931" ry="18"/>
<text text-anchor="middle" x="638.5" y="-22.3" font-family="Times,serif" font-size="14.00">Handler</text>
</g>
<!-- WorkerPoolManager&#45;&gt;Handler -->
<g id="edge16" class="edge"><title>WorkerPoolManager&#45;&gt;Handler</title>
<path fill="none" stroke="black" stroke-dasharray="1,5" d="M304.629,-196.185C327.211,-190.499 352.552,-183.802 375.5,-177 406.089,-167.934 418.226,-173.471 443.5,-154 468.401,-134.816 459.106,-115.994 482.5,-95 506.318,-73.6249 517.276,-75.0437 546.5,-62 563.3,-54.5017 582.24,-47.1203 598.549,-41.0835"/>
<polygon fill="black" stroke="black" points="600.132,-44.2314 608.321,-37.5095 597.728,-37.6573 600.132,-44.2314"/>
</g>
<!-- QueueSampler -->
<g id="node3" class="node"><title>QueueSampler</title>
<path fill="none" stroke="black" d="M408.5,-231C408.5,-231 334.5,-231 334.5,-231 328.5,-231 322.5,-225 322.5,-219 322.5,-219 322.5,-207 322.5,-207 322.5,-201 328.5,-195 334.5,-195 334.5,-195 408.5,-195 408.5,-195 414.5,-195 420.5,-201 420.5,-207 420.5,-207 420.5,-219 420.5,-219 420.5,-225 414.5,-231 408.5,-231"/>
<text text-anchor="middle" x="371.5" y="-209.3" font-family="Times,serif" font-size="14.00">QueueSampler</text>
</g>
<!-- QueueSampler&#45;&gt;Queue -->
<g id="edge7" class="edge"><title>QueueSampler&#45;&gt;Queue</title>
<path fill="none" stroke="black" stroke-dasharray="1,5" d="M420.61,-213C449.59,-213 485.684,-213 512.299,-213"/>
<polygon fill="black" stroke="black" points="512.357,-216.5 522.357,-213 512.357,-209.5 512.357,-216.5"/>
<text text-anchor="middle" x="471.5" y="-219.8" font-family="Times,serif" font-size="14.00">sample metrics</text>
</g>
<!-- Worker&#45;&gt;Queue -->
<g id="edge2" class="edge"><title>Worker&#45;&gt;Queue</title>
<path fill="none" stroke="black" stroke-dasharray="1,5" d="M526.415,-131.203C530.657,-146.05 536.857,-167.749 541.764,-184.923"/>
<polygon fill="black" stroke="black" points="538.51,-186.276 544.623,-194.93 545.241,-184.353 538.51,-186.276"/>
<text text-anchor="middle" x="580.5" y="-165.8" font-family="Times,serif" font-size="14.00">dequeu request</text>
</g>
<!-- Worker&#45;&gt;Handler -->
<g id="edge3" class="edge"><title>Worker&#45;&gt;Handler</title>
<path fill="none" stroke="black" stroke-dasharray="1,5" d="M534.277,-94.6967C542.604,-84.2744 554.184,-71.2707 566.5,-62 576.65,-54.3599 588.731,-47.7136 600.07,-42.3254"/>
<polygon fill="black" stroke="black" points="601.707,-45.4261 609.362,-38.101 598.81,-39.0537 601.707,-45.4261"/>
<text text-anchor="middle" x="600.5" y="-65.8" font-family="Times,serif" font-size="14.00">send request</text>
</g>
<!-- WorkerPoolSampler&#45;&gt;WorkerPoolManager -->
<g id="edge18" class="edge"><title>WorkerPoolSampler&#45;&gt;WorkerPoolManager</title>
<path fill="none" stroke="black" stroke-dasharray="1,5" d="M319.466,-131.014C301.944,-138.577 283.09,-148.809 268.5,-162 261.111,-168.681 254.969,-177.614 250.209,-186.08"/>
<polygon fill="black" stroke="black" points="247.102,-184.469 245.59,-194.955 253.311,-187.7 247.102,-184.469"/>
<text text-anchor="middle" x="310.5" y="-165.8" font-family="Times,serif" font-size="14.00">sample metrics</text>
</g>
<!-- Autothrottler&#45;&gt;WorkerPoolManager -->
<g id="edge15" class="edge"><title>Autothrottler&#45;&gt;WorkerPoolManager</title>
<path fill="none" stroke="black" stroke-dasharray="1,5" d="M135.803,-131.054C121.362,-144.007 107.306,-162.075 118.5,-177 129.167,-191.223 145.295,-199.927 162.298,-205.188"/>
<polygon fill="black" stroke="black" points="161.808,-208.681 172.375,-207.903 163.63,-201.922 161.808,-208.681"/>
<text text-anchor="middle" x="169.5" y="-165.8" font-family="Times,serif" font-size="14.00">resize worker pool</text>
</g>
<!-- Autothrottler&#45;&gt;WorkerPoolSampler -->
<g id="edge20" class="edge"><title>Autothrottler&#45;&gt;WorkerPoolSampler</title>
<path fill="none" stroke="black" stroke-dasharray="1,5" d="M202.169,-113C229.185,-113 264.578,-113 295.936,-113"/>
<polygon fill="black" stroke="black" points="295.959,-116.5 305.959,-113 295.959,-109.5 295.959,-116.5"/>
<text text-anchor="middle" x="254" y="-119.8" font-family="Times,serif" font-size="14.00">retreive metrics</text>
</g>
<!-- Dispatcher -->
<g id="node8" class="node"><title>Dispatcher</title>
<path fill="none" stroke="black" d="M483,-405C483,-405 432,-405 432,-405 426,-405 420,-399 420,-393 420,-393 420,-381 420,-381 420,-375 426,-369 432,-369 432,-369 483,-369 483,-369 489,-369 495,-375 495,-381 495,-381 495,-393 495,-393 495,-399 489,-405 483,-405"/>
<text text-anchor="middle" x="457.5" y="-383.3" font-family="Times,serif" font-size="14.00">Dispatcher</text>
</g>
<!-- Dispatcher&#45;&gt;Queue -->
<g id="edge4" class="edge"><title>Dispatcher&#45;&gt;Queue</title>
<path fill="none" stroke="black" d="M462.234,-368.933C470.223,-341.932 488.135,-288.391 514.5,-249 516.866,-245.465 519.626,-241.989 522.538,-238.68"/>
<polygon fill="black" stroke="black" points="525.172,-240.988 529.498,-231.317 520.085,-236.18 525.172,-240.988"/>
</g>
<!-- Dispatcher&#45;&gt;Queue -->
<g id="edge5" class="edge"><title>Dispatcher&#45;&gt;Queue</title>
<path fill="none" stroke="black" stroke-dasharray="1,5" d="M471.516,-368.949C475.87,-363.365 480.557,-357.041 484.5,-351 507.95,-315.068 527.887,-269.358 539.28,-240.885"/>
<polygon fill="black" stroke="black" points="542.676,-241.812 543.081,-231.225 536.162,-239.249 542.676,-241.812"/>
<text text-anchor="middle" x="565.5" y="-296.3" font-family="Times,serif" font-size="14.00">enqueue request</text>
</g>
<!-- Dispatcher&#45;&gt;WorkerPoolManager -->
<g id="edge8" class="edge"><title>Dispatcher&#45;&gt;WorkerPoolManager</title>
<path fill="none" stroke="black" d="M419.787,-375.007C403.522,-369.28 384.769,-361.294 369.5,-351 323.306,-319.859 280.921,-269.994 257.508,-239.787"/>
<polygon fill="black" stroke="black" points="259.994,-237.277 251.143,-231.453 254.431,-241.525 259.994,-237.277"/>
</g>
<!-- Dispatcher&#45;&gt;QueueSampler -->
<g id="edge6" class="edge"><title>Dispatcher&#45;&gt;QueueSampler</title>
<path fill="none" stroke="black" d="M419.691,-373.43C407.391,-367.978 394.378,-360.599 384.5,-351 372.668,-339.502 371.387,-334.034 367.5,-318 361.309,-292.462 363.443,-262.377 366.441,-241.152"/>
<polygon fill="black" stroke="black" points="369.907,-241.639 367.999,-231.218 362.992,-240.555 369.907,-241.639"/>
</g>
<!-- Regulator -->
<g id="node9" class="node"><title>Regulator</title>
<path fill="none" stroke="black" d="M434.5,-318C434.5,-318 388.5,-318 388.5,-318 382.5,-318 376.5,-312 376.5,-306 376.5,-306 376.5,-294 376.5,-294 376.5,-288 382.5,-282 388.5,-282 388.5,-282 434.5,-282 434.5,-282 440.5,-282 446.5,-288 446.5,-294 446.5,-294 446.5,-306 446.5,-306 446.5,-312 440.5,-318 434.5,-318"/>
<text text-anchor="middle" x="411.5" y="-296.3" font-family="Times,serif" font-size="14.00">Regulator</text>
</g>
<!-- Dispatcher&#45;&gt;Regulator -->
<g id="edge9" class="edge"><title>Dispatcher&#45;&gt;Regulator</title>
<path fill="none" stroke="black" d="M454.701,-368.566C452.601,-358.588 449.101,-346.088 443.5,-336 441.577,-332.536 439.246,-329.137 436.728,-325.902"/>
<polygon fill="black" stroke="black" points="439.361,-323.595 430.212,-318.252 434.032,-328.134 439.361,-323.595"/>
</g>
<!-- HandlerProvider -->
<g id="node10" class="node"><title>HandlerProvider</title>
<ellipse fill="none" stroke="black" cx="638.5" cy="-113" rx="69.5877" ry="18"/>
<text text-anchor="middle" x="638.5" y="-109.3" font-family="Times,serif" font-size="14.00">HandlerProvider</text>
</g>
<!-- Dispatcher&#45;&gt;HandlerProvider -->
<g id="edge19" class="edge"><title>Dispatcher&#45;&gt;HandlerProvider</title>
<path fill="none" stroke="black" stroke-dasharray="1,5" d="M495.278,-380.4C531.703,-372.875 585.326,-355.774 613.5,-318 652.651,-265.508 648.516,-183.436 643.037,-141.172"/>
<polygon fill="black" stroke="black" points="646.476,-140.494 641.603,-131.086 639.546,-141.479 646.476,-140.494"/>
<text text-anchor="middle" x="687" y="-252.8" font-family="Times,serif" font-size="14.00">retrieve handlers</text>
</g>
<!-- Regulator&#45;&gt;QueueSampler -->
<g id="edge11" class="edge"><title>Regulator&#45;&gt;QueueSampler</title>
<path fill="none" stroke="black" stroke-dasharray="1,5" d="M394.664,-281.986C390.126,-276.602 385.616,-270.382 382.5,-264 379.068,-256.972 376.696,-248.867 375.06,-241.257"/>
<polygon fill="black" stroke="black" points="378.488,-240.545 373.256,-231.333 371.601,-241.797 378.488,-240.545"/>
<text text-anchor="middle" x="425.5" y="-252.8" font-family="Times,serif" font-size="14.00">retrieve metrics</text>
</g>
<!-- Regulator&#45;&gt;Dispatcher -->
<g id="edge10" class="edge"><title>Regulator&#45;&gt;Dispatcher</title>
<path fill="none" stroke="black" stroke-dasharray="1,5" d="M396.317,-318.27C389.505,-328.193 384.255,-340.693 390.5,-351 395.344,-358.996 402.68,-365.251 410.746,-370.117"/>
<polygon fill="black" stroke="black" points="409.227,-373.273 419.701,-374.867 412.507,-367.089 409.227,-373.273"/>
<text text-anchor="middle" x="415" y="-339.8" font-family="Times,serif" font-size="14.00">regulates</text>
</g>
<!-- HandlerProvider&#45;&gt;Handler -->
<g id="edge1" class="edge"><title>HandlerProvider&#45;&gt;Handler</title>
<path fill="none" stroke="black" d="M638.5,-94.799C638.5,-83.1626 638.5,-67.5479 638.5,-54.2368"/>
<polygon fill="black" stroke="black" points="642,-54.1754 638.5,-44.1754 635,-54.1755 642,-54.1754"/>
</g>
</g>
</svg>
